<?xml version="1.0" encoding="utf-8"?>
<!-- Generator: Adobe Illustrator 25.4.1, SVG Export Plug-In . SVG Version: 6.00 Build 0)  -->
<svg version="1.1" id="Layer_1" xmlns="http://www.w3.org/2000/svg" xmlns:xlink="http://www.w3.org/1999/xlink" x="0px" y="0px"
	 viewBox="0 0 610 218" style="enable-background:new 0 0 610 218;" xml:space="preserve">
<style type="text/css">
	.st0{fill:#2A4891;}
	.st1{fill:#FFFFFF;filter:url(#Adobe_OpacityMaskFilter);}
	.st2{mask:url(#path-4-outside-1_2248_43_00000096047865960586824650000014509671013672601498_);fill:#FFFFFF;}
	.st3{fill:none;stroke:#FFFFFF;stroke-width:1.5;stroke-linecap:round;stroke-linejoin:round;}
	.st4{fill:none;stroke:#FFFFFF;stroke-width:1.5;stroke-linecap:round;}
</style>
<path class="st0" d="M596.7,93.7c-2.1,1.3-3.4,3.6-3.4,6.1v15.4c0,5-6.4,7.1-9.3,3c-1.2-1.6-3.2-2.4-5.2-2l-29.7,6.3l-1.6,0.1
	l-22.5,1.8l-1,0.1c-5.1,0.4-10.1-1.9-13.2-6l-0.6-0.8c-1.8-2.4-4.3-4.1-7.2-4.7c-5.5-1.9-13.8,4.2-21.5,13.2
	c-0.1,0.1-0.2,0.2-0.3,0.3c-1.3,1-3.2,0.1-3.2-1.6v-1.6c0-0.6-0.2-1.1-0.5-1.6C456,92.7,432.9,24.2,506.3,2.6
	c25-6.2,48.2-2,66.1,20.8c2.2,2.9,3.9,6.1,5.4,9.4l21.9,52C601,88,599.8,91.8,596.7,93.7z"/>
<path class="st0" d="M370.7,177.3c-4.7,0-9.5-0.6-14.3-1.8c-4.9-1.1-8.9-2.6-12.2-4.5l0.6-17.4h1.3l4,8.3c1.2,2.4,2.5,4.5,3.8,6.4
	c1.4,1.8,3.2,3.2,5.6,4.2c1.7,0.9,3.3,1.5,4.9,1.8c1.6,0.3,3.4,0.4,5.4,0.4c5.2,0,9.3-1.4,12.3-4.2c3.1-2.8,4.6-6.4,4.6-10.9
	c0-4.2-1-7.4-3.1-9.7c-2-2.4-5.3-4.7-9.9-6.9l-5.2-2.3c-7.3-3.2-13.1-7-17.3-11.1c-4.1-4.3-6.1-9.9-6.1-16.9c0-5,1.3-9.4,3.8-13.1
	c2.6-3.7,6.3-6.5,10.9-8.4c4.7-2,10.2-2.9,16.4-2.9c4.5,0,8.8,0.6,12.8,1.8c4.1,1.2,7.6,2.8,10.6,4.9l-0.8,15.4h-1.3l-5.2-9.6
	c-1.5-3-2.9-5.1-4.4-6.3c-1.5-1.3-3.1-2.2-5-2.7c-1.1-0.3-2.1-0.6-3.1-0.6c-0.9-0.2-2.1-0.3-3.6-0.3c-4.4,0-8,1.3-11,3.8
	c-3,2.5-4.5,5.8-4.5,10.1c0,4.4,1.2,7.9,3.5,10.5c2.3,2.6,5.7,4.9,10.1,6.9l5.9,2.6c8.2,3.6,14.1,7.4,17.7,11.5
	c3.6,4,5.4,9.2,5.4,15.6c0,7.5-2.9,13.7-8.6,18.4C389.1,175,381.1,177.3,370.7,177.3z M441.4,176.9c-5.8,0-11.1-1.2-15.9-3.7
	c-4.7-2.6-8.4-6.2-11.3-11c-2.7-4.9-4.1-10.8-4.1-17.8c0-6.9,1.5-12.8,4.5-17.7c3.1-4.9,7.1-8.7,12.2-11.3c5.1-2.6,10.7-4,16.8-4
	c4.9,0,9.1,0.8,12.5,2.4c3.4,1.6,6,3.8,7.8,6.4c1.8,2.6,2.7,5.2,2.7,8.1c0,2.4-0.7,4.3-2.2,5.6c-1.5,1.3-3.3,1.9-5.6,1.9
	c-2.5,0-4.5-0.9-6-2.7c-1.5-1.8-2.4-4.1-2.7-7c-0.1-1.9,0-3.5,0.1-4.7c0.2-1.4,0.2-2.7,0-4.1c-0.3-1.5-0.9-2.4-1.7-2.8
	c-0.7-0.5-1.7-0.8-2.9-0.8c-5.2,0-9.3,2.3-12.2,6.8c-2.8,4.5-4.2,11.7-4.2,21.6c0,8.6,1.6,15.2,4.7,19.8c3.2,4.5,8.2,6.8,14.8,6.8
	c4,0,7.3-0.7,9.7-2.2c2.5-1.5,4.9-3.6,7.2-6.5l1.3,1c-2.1,5-5.4,8.9-9.9,11.6C452.7,175.6,447.5,176.9,441.4,176.9z M490.9,176.9
	c-4.9,0-9.1-1.4-12.5-4.2c-3.3-2.8-5-6.9-5-12.2c0-4,2-7.7,6.1-11c4.1-3.4,10.5-6,19.3-7.7c1.4-0.3,2.9-0.5,4.6-0.8
	c1.7-0.3,3.5-0.7,5.4-1v-10.1c0-5.8-0.7-9.9-2.2-12.2c-1.4-2.4-3.5-3.6-6.5-3.6c-2,0-3.7,0.7-4.9,2c-1.2,1.3-2,3.5-2.3,6.8l-0.3,1.4
	c-0.2,3.7-1.1,6.4-2.7,8.1s-3.6,2.6-6,2.6c-2.2,0-4.1-0.7-5.5-2c-1.5-1.4-2.2-3.2-2.2-5.5c0-3.5,1.2-6.4,3.6-8.8
	c2.5-2.4,5.7-4.2,9.7-5.4c4-1.2,8.4-1.8,13.1-1.8c7.6,0,13.4,1.9,17.5,5.6c4.2,3.7,6.3,9.7,6.3,18v28.3c0,3.8,1.8,5.8,5.4,5.8h2.8
	l1.2,1c-1.6,2-3.4,3.6-5.4,4.7c-1.9,1.1-4.6,1.7-8.1,1.7c-3.8,0-6.7-0.9-9-2.6c-2.1-1.8-3.5-4.1-4.2-7c-2.6,2.7-5.2,5.1-7.9,7
	C498.6,176,495.1,176.9,490.9,176.9z M498.7,169.1c1.7,0,3.3-0.4,4.7-1.2c1.5-0.9,3.3-2.1,5.4-3.8v-21.5c-0.9,0.2-1.7,0.3-2.6,0.5
	c-0.9,0.2-1.8,0.3-2.9,0.5c-3.9,1-7.1,2.8-9.5,5.2c-2.3,2.4-3.5,5.6-3.5,9.7c0,3.5,0.8,6.1,2.4,7.9
	C494.4,168.3,496.4,169.1,498.7,169.1z M538.2,175v-1.3l1.8-0.5c3-0.9,4.5-2.9,4.5-6.3v-40.1c0-1.9-0.3-3.2-0.9-4.1
	c-0.6-0.9-1.7-1.6-3.5-1.9l-1.9-0.5v-1.3l21.9-7.4l1.3,1.3l1,7.7c3-2.6,6.4-4.8,10.1-6.5s7.5-2.6,11.1-2.6c5.6,0,9.9,1.5,12.9,4.6
	c3.1,3.1,4.6,7.8,4.6,14.1v36.9c0,3.3,1.6,5.4,4.9,6.3l1.2,0.4v1.3H577v-1.3l1.7-0.5c3-0.9,4.5-3,4.5-6.3v-40.8
	c0-5.5-2.7-8.2-8.2-8.2c-3.8,0-7.9,1.9-12.3,5.6v43.5c0,3.3,1.5,5.4,4.5,6.3l1.2,0.4v1.3H538.2z"/>
<path class="st0" d="M490.2,176.9c-4.9,0-9.1-1.4-12.5-4.2c-3.3-2.8-5-6.9-5-12.2c0-4,2-7.7,6.1-11c4.1-3.4,10.5-6,19.3-7.7
	c1.4-0.3,2.9-0.5,4.6-0.8c1.7-0.3,3.5-0.7,5.4-1v-10.1c0-5.8-0.7-9.9-2.2-12.2c-1.4-2.4-3.5-3.6-6.5-3.6c-2,0-3.7,0.7-4.9,2
	c-1.2,1.3-2,3.5-2.3,6.8l-0.3,1.4c-0.2,3.7-1.1,6.4-2.7,8.1s-3.6,2.6-6,2.6c-2.2,0-4.1-0.7-5.5-2c-1.5-1.4-2.2-3.2-2.2-5.5
	c0-3.5,1.2-6.4,3.6-8.8c2.5-2.4,5.7-4.2,9.7-5.4c4-1.2,8.4-1.8,13.1-1.8c7.6,0,13.4,1.9,17.5,5.6c4.2,3.7,6.3,9.7,6.3,18v28.3
	c0,3.8,1.8,5.8,5.4,5.8h2.8l1.2,1c-1.6,2-3.4,3.6-5.4,4.7c-1.9,1.1-4.6,1.7-8.1,1.7c-3.8,0-6.7-0.9-9-2.6c-2.1-1.8-3.5-4.1-4.2-7
	c-2.6,2.7-5.2,5.1-7.9,7C498,176,494.5,176.9,490.2,176.9z M498.1,169.1c1.7,0,3.3-0.4,4.7-1.2c1.5-0.9,3.3-2.1,5.4-3.8v-21.5
	c-0.9,0.2-1.7,0.3-2.6,0.5c-0.9,0.2-1.8,0.3-2.9,0.5c-3.9,1-7.1,2.8-9.5,5.2c-2.3,2.4-3.5,5.6-3.5,9.7c0,3.5,0.8,6.1,2.4,7.9
	C493.8,168.3,495.8,169.1,498.1,169.1z M537.6,175v-1.3l1.8-0.5c3-0.9,4.5-2.9,4.5-6.3v-40.1c0-1.9-0.3-3.2-0.9-4.1
	c-0.6-0.9-1.7-1.6-3.5-1.9l-1.9-0.5v-1.3l21.9-7.4l1.3,1.3l1,7.7c3-2.6,6.4-4.8,10.1-6.5s7.5-2.6,11.1-2.6c5.6,0,9.9,1.5,12.9,4.6
	c3.1,3.1,4.6,7.8,4.6,14.1v36.9c0,3.3,1.6,5.4,4.9,6.3l1.2,0.4v1.3h-30.2v-1.3l1.7-0.5c3-0.9,4.5-3,4.5-6.3v-40.8
	c0-5.5-2.7-8.2-8.2-8.2c-3.8,0-7.9,1.9-12.3,5.6v43.5c0,3.3,1.5,5.4,4.5,6.3l1.2,0.4v1.3H537.6z"/>
<defs>
	<filter id="Adobe_OpacityMaskFilter" filterUnits="userSpaceOnUse" x="471.7" y="110.5" width="135.8" height="67.4">
		<feColorMatrix  type="matrix" values="1 0 0 0 0  0 1 0 0 0  0 0 1 0 0  0 0 0 1 0"/>
	</filter>
</defs>
<mask maskUnits="userSpaceOnUse" x="471.7" y="110.5" width="135.8" height="67.4" id="path-4-outside-1_2248_43_00000096047865960586824650000014509671013672601498_">
	<rect x="471" y="110" class="st1" width="137" height="68"/>
	<path d="M490.2,176.9c-4.9,0-9.1-1.4-12.5-4.2c-3.3-2.8-5-6.9-5-12.2c0-4,2-7.7,6.1-11c4.1-3.4,10.5-6,19.3-7.7
		c1.4-0.3,2.9-0.5,4.6-0.8c1.7-0.3,3.5-0.7,5.4-1v-10.1c0-5.8-0.7-9.9-2.2-12.2c-1.4-2.4-3.5-3.6-6.5-3.6c-2,0-3.7,0.7-4.9,2
		c-1.2,1.3-2,3.5-2.3,6.8l-0.3,1.4c-0.2,3.7-1.1,6.4-2.7,8.1s-3.6,2.6-6,2.6c-2.2,0-4.1-0.7-5.5-2c-1.5-1.4-2.2-3.2-2.2-5.5
		c0-3.5,1.2-6.4,3.6-8.8c2.5-2.4,5.7-4.2,9.7-5.4c4-1.2,8.4-1.8,13.1-1.8c7.6,0,13.4,1.9,17.5,5.6c4.2,3.7,6.3,9.7,6.3,18v28.3
		c0,3.8,1.8,5.8,5.4,5.8h2.8l1.2,1c-1.6,2-3.4,3.6-5.4,4.7c-1.9,1.1-4.6,1.7-8.1,1.7c-3.8,0-6.7-0.9-9-2.6c-2.1-1.8-3.5-4.1-4.2-7
		c-2.6,2.7-5.2,5.1-7.9,7C498,176,494.5,176.9,490.2,176.9z M498.1,169.1c1.7,0,3.3-0.4,4.7-1.2c1.5-0.9,3.3-2.1,5.4-3.8v-21.5
		c-0.9,0.2-1.7,0.3-2.6,0.5c-0.9,0.2-1.8,0.3-2.9,0.5c-3.9,1-7.1,2.8-9.5,5.2c-2.3,2.4-3.5,5.6-3.5,9.7c0,3.5,0.8,6.1,2.4,7.9
		C493.8,168.3,495.8,169.1,498.1,169.1z M537.6,175v-1.3l1.8-0.5c3-0.9,4.5-2.9,4.5-6.3v-40.1c0-1.9-0.3-3.2-0.9-4.1
		c-0.6-0.9-1.7-1.6-3.5-1.9l-1.9-0.5v-1.3l21.9-7.4l1.3,1.3l1,7.7c3-2.6,6.4-4.8,10.1-6.5s7.5-2.6,11.1-2.6c5.6,0,9.9,1.5,12.9,4.6
		c3.1,3.1,4.6,7.8,4.6,14.1v36.9c0,3.3,1.6,5.4,4.9,6.3l1.2,0.4v1.3h-30.2v-1.3l1.7-0.5c3-0.9,4.5-3,4.5-6.3v-40.8
		c0-5.5-2.7-8.2-8.2-8.2c-3.8,0-7.9,1.9-12.3,5.6v43.5c0,3.3,1.5,5.4,4.5,6.3l1.2,0.4v1.3H537.6z"/>
</mask>
<path class="st2" d="M477.7,172.7l-0.6,0.8l0,0L477.7,172.7z M478.9,149.5l0.6,0.8l0,0L478.9,149.5z M498.2,141.8l-0.2-1l0,0
	L498.2,141.8z M502.8,141.1l0.1,1l0,0l0,0L502.8,141.1z M508.2,140.1l0.2,1l0.8-0.1v-0.8H508.2z M506,117.8l-0.9,0.5l0,0l0,0
	L506,117.8z M494.6,116.2l0.7,0.7l0,0l0,0L494.6,116.2z M492.3,123l1,0.2l0,0l0,0L492.3,123z M492,124.4l-1-0.2l0,0.1l0,0.1
	L492,124.4z M489.4,132.5l0.7,0.7l0,0L489.4,132.5z M477.8,133l0.7-0.7l0,0L477.8,133z M479.2,118.7l-0.7-0.7l0,0l0,0L479.2,118.7z
	 M489,113.3l-0.3-1l0,0L489,113.3z M519.6,117.1l-0.7,0.7l0,0l0,0L519.6,117.1z M534,169.2l0.7-0.7l-0.3-0.3H534V169.2z
	 M535.2,170.3l0.8,0.6l0.6-0.7l-0.7-0.6L535.2,170.3z M529.8,175l-0.5-0.9l0,0l0,0L529.8,175z M512.8,174.1l-0.6,0.8l0,0l0,0
	L512.8,174.1z M508.6,167.1l1-0.2l-0.4-1.8l-1.3,1.4L508.6,167.1z M500.6,174.1l0.6,0.8l0,0L500.6,174.1z M502.8,168l0.5,0.9l0,0
	l0,0L502.8,168z M508.2,164.1l0.6,0.8l0.4-0.3v-0.5H508.2z M508.2,142.6h1v-1.2l-1.2,0.2L508.2,142.6z M505.6,143.1l0.2,1
	L505.6,143.1z M502.7,143.6l-0.2-1l-0.1,0l0,0L502.7,143.6z M493.2,148.9l-0.7-0.7l0,0L493.2,148.9z M492.2,166.6l-0.7,0.7l0,0l0,0
	L492.2,166.6z M490.2,176.9v-1c-4.7,0-8.7-1.3-11.9-4l-0.6,0.8l-0.6,0.8c3.6,3,8,4.5,13.2,4.5V176.9z M477.7,172.7l0.6-0.8
	c-3.1-2.6-4.6-6.3-4.6-11.4h-1h-1c0,5.5,1.7,9.9,5.3,12.9L477.7,172.7z M472.7,160.5h1c0-3.6,1.8-7,5.8-10.2l-0.6-0.8l-0.6-0.8
	c-4.2,3.5-6.5,7.4-6.5,11.8H472.7z M478.9,149.5l0.6,0.8c3.9-3.3,10.2-5.8,18.9-7.5l-0.2-1l-0.2-1c-8.9,1.7-15.5,4.3-19.8,7.9
	L478.9,149.5z M498.2,141.8l0.2,1c1.4-0.3,2.9-0.5,4.6-0.8l-0.1-1l-0.1-1c-1.7,0.3-3.3,0.5-4.6,0.8L498.2,141.8z M502.8,141.1l0.2,1
	c1.7-0.3,3.5-0.7,5.4-1l-0.2-1l-0.2-1c-1.9,0.3-3.7,0.7-5.4,1L502.8,141.1z M508.2,140.1h1v-10.1h-1h-1v10.1H508.2z M508.2,129.9h1
	c0-5.8-0.7-10.1-2.3-12.7l-0.8,0.5l-0.8,0.5c1.3,2,2,5.8,2,11.6H508.2z M506,117.8l0.9-0.5c-1.6-2.7-4.1-4.1-7.4-4.1v1v1
	c2.7,0,4.5,1,5.7,3.1L506,117.8z M499.5,114.2v-1c-2.3,0-4.2,0.8-5.6,2.4l0.8,0.7l0.8,0.7c1-1.1,2.3-1.7,4.1-1.7V114.2z
	 M494.6,116.2l-0.7-0.7c-1.4,1.5-2.2,4.1-2.6,7.4l1,0.1l1,0.1c0.3-3.2,1.1-5.2,2-6.2L494.6,116.2z M492.3,123l-1-0.2l-0.3,1.4l1,0.2
	l1,0.2l0.3-1.4L492.3,123z M492,124.4l-1,0c-0.2,3.6-1,6-2.4,7.4l0.7,0.7l0.7,0.7c1.9-2,2.8-4.9,3-8.7L492,124.4z M489.4,132.5
	l-0.7-0.7c-1.4,1.5-3.2,2.2-5.3,2.2v1v1c2.7,0,4.9-1,6.7-2.9L489.4,132.5z M483.3,135.1v-1c-2,0-3.6-0.6-4.8-1.8l-0.7,0.7l-0.7,0.7
	c1.7,1.6,3.7,2.3,6.2,2.3V135.1z M477.8,133l0.7-0.7c-1.2-1.1-1.9-2.7-1.9-4.8h-1h-1c0,2.5,0.8,4.6,2.5,6.2L477.8,133z M475.7,127.5
	h1c0-3.2,1.1-5.9,3.3-8.1l-0.7-0.7l-0.7-0.7c-2.6,2.6-3.9,5.8-3.9,9.5H475.7z M479.2,118.7l0.7,0.7c2.3-2.3,5.4-4,9.3-5.1l-0.3-1
	l-0.3-1c-4.1,1.2-7.5,3.1-10.1,5.6L479.2,118.7z M489,113.3l0.3,1c3.9-1.2,8.2-1.8,12.8-1.8v-1v-1c-4.8,0-9.2,0.6-13.3,1.8
	L489,113.3z M502,111.5v1c7.4,0,13,1.8,16.9,5.4l0.7-0.7l0.7-0.7c-4.3-4-10.5-5.9-18.2-5.9V111.5z M519.6,117.1l-0.7,0.8
	c3.9,3.4,5.9,9.1,5.9,17.3h1h1c0-8.5-2.1-14.9-6.6-18.8L519.6,117.1z M525.8,135.2h-1v28.3h1h1v-28.3H525.8z M525.8,163.5h-1
	c0,2.1,0.5,3.8,1.6,5c1.1,1.2,2.8,1.8,4.8,1.8v-1v-1c-1.6,0-2.7-0.4-3.3-1.1c-0.7-0.7-1.1-1.9-1.1-3.6H525.8z M531.2,169.2v1h2.8v-1
	v-1h-2.8V169.2z M534,169.2l-0.7,0.7l1.2,1l0.7-0.7l0.7-0.7l-1.2-1L534,169.2z M535.2,170.3l-0.8-0.6c-1.6,2-3.2,3.4-5.1,4.5
	l0.5,0.9l0.5,0.9c2.1-1.2,4-2.9,5.7-5L535.2,170.3z M529.8,175l-0.5-0.9c-1.7,1-4.1,1.5-7.6,1.5v1v1c3.6,0,6.5-0.6,8.6-1.8
	L529.8,175z M521.7,176.7v-1c-3.6,0-6.4-0.8-8.4-2.4l-0.6,0.8l-0.6,0.8c2.4,1.9,5.7,2.8,9.6,2.8V176.7z M512.8,174.1l0.6-0.8
	c-2-1.6-3.3-3.8-3.9-6.5l-1,0.2l-1,0.2c0.7,3.1,2.2,5.6,4.6,7.6L512.8,174.1z M508.6,167.1l-0.7-0.7c-2.5,2.7-5.1,5-7.8,6.9l0.6,0.8
	l0.6,0.8c2.8-2,5.5-4.4,8.1-7.2L508.6,167.1z M500.6,174.1l-0.6-0.8c-2.4,1.7-5.7,2.6-9.8,2.6v1v1c4.4,0,8.1-1,10.9-3L500.6,174.1z
	 M498.1,169.1v1c1.9,0,3.6-0.4,5.2-1.3l-0.5-0.9l-0.5-0.9c-1.3,0.7-2.7,1-4.3,1V169.1z M502.8,168l0.5,0.9c1.6-0.9,3.5-2.2,5.5-3.9
	l-0.6-0.8l-0.6-0.8c-2,1.7-3.8,2.9-5.2,3.7L502.8,168z M508.2,164.1h1v-21.5h-1h-1v21.5H508.2z M508.2,142.6l-0.2-1
	c-0.9,0.2-1.7,0.3-2.6,0.5l0.2,1l0.2,1c0.9-0.2,1.7-0.3,2.6-0.5L508.2,142.6z M505.6,143.1l-0.2-1c-0.8,0.2-1.8,0.3-2.9,0.5l0.2,1
	l0.2,1c1.1-0.2,2.1-0.3,3-0.5L505.6,143.1z M502.7,143.6l-0.3-1c-4.1,1.1-7.4,2.9-9.9,5.5l0.7,0.7l0.7,0.7c2.2-2.3,5.2-4,9-5
	L502.7,143.6z M493.2,148.9l-0.7-0.7c-2.5,2.6-3.7,6.1-3.7,10.4h1h1c0-3.9,1.1-6.9,3.2-9L493.2,148.9z M489.7,158.6h-1
	c0,3.6,0.8,6.6,2.7,8.6l0.7-0.7l0.7-0.7c-1.4-1.5-2.2-3.9-2.2-7.3H489.7z M492.2,166.6l-0.7,0.7c1.8,1.9,4,2.9,6.6,2.9v-1v-1
	c-2,0-3.7-0.7-5.2-2.2L492.2,166.6z M537.6,175h-1v1h1V175z M537.6,173.7l-0.3-1l-0.7,0.2v0.8H537.6z M539.4,173.2l-0.3-1
	L539.4,173.2z M542.9,122.8l-0.8,0.5l0,0l0,0L542.9,122.8z M539.5,120.9l-0.3,1l0,0l0,0L539.5,120.9z M537.6,120.3h-1v0.8l0.7,0.2
	L537.6,120.3z M537.6,119.1l-0.3-0.9l-0.7,0.2v0.7H537.6z M559.4,111.6l0.7-0.7l-0.4-0.4l-0.6,0.2L559.4,111.6z M560.7,112.9l1-0.1
	l0-0.3l-0.2-0.2L560.7,112.9z M561.8,120.6l-1,0.1l0.2,1.9l1.4-1.2L561.8,120.6z M571.9,114.1l0.4,0.9l0,0L571.9,114.1z
	 M595.9,116.1l-0.7,0.7l0,0L595.9,116.1z M605.4,173.3l0.3-0.9l0,0l0,0L605.4,173.3z M606.6,173.7h1V173l-0.7-0.2L606.6,173.7z
	 M606.6,175v1h1v-1H606.6z M576.3,175h-1v1h1V175z M576.3,173.7l-0.3-1l-0.7,0.2v0.7H576.3z M578,173.2l0.3,1l0,0L578,173.2z
	 M562,123.5l-0.6-0.8l-0.4,0.3v0.5H562z M566.5,173.3l0.3-0.9l0,0l0,0L566.5,173.3z M567.6,173.7h1V173l-0.7-0.2L567.6,173.7z
	 M567.6,175v1h1v-1H567.6z M537.6,175h1v-1.3h-1h-1v1.3H537.6z M537.6,173.7l0.3,1l1.8-0.5l-0.3-1l-0.3-1l-1.8,0.5L537.6,173.7z
	 M539.4,173.2l0.3,1c1.7-0.5,3-1.3,3.9-2.6c0.9-1.3,1.3-2.8,1.3-4.6h-1h-1c0,1.5-0.3,2.7-0.9,3.5c-0.6,0.8-1.5,1.4-2.8,1.8
	L539.4,173.2z M543.8,166.9h1v-40.1h-1h-1v40.1H543.8z M543.8,126.9h1c0-1.9-0.3-3.6-1.1-4.7l-0.8,0.6l-0.8,0.6
	c0.4,0.6,0.7,1.7,0.7,3.5H543.8z M542.9,122.8l0.8-0.5c-0.8-1.3-2.3-2-4.1-2.4l-0.2,1l-0.2,1c1.6,0.3,2.4,0.9,2.8,1.5L542.9,122.8z
	 M539.5,120.9l0.3-1l-1.9-0.5l-0.3,1l-0.3,1l1.9,0.5L539.5,120.9z M537.6,120.3h1v-1.3h-1h-1v1.3H537.6z M537.6,119.1l0.3,0.9
	l21.9-7.4l-0.3-0.9l-0.3-0.9l-21.9,7.4L537.6,119.1z M559.4,111.6l-0.7,0.7l1.3,1.3l0.7-0.7l0.7-0.7l-1.3-1.3L559.4,111.6z
	 M560.7,112.9l-1,0.1l1,7.7l1-0.1l1-0.1l-1-7.7L560.7,112.9z M561.8,120.6l0.7,0.7c2.9-2.6,6.2-4.7,9.9-6.4l-0.4-0.9l-0.4-0.9
	c-3.8,1.7-7.3,4-10.4,6.7L561.8,120.6z M571.9,114.1l0.4,0.9c3.6-1.7,7.2-2.5,10.7-2.5v-1v-1c-3.8,0-7.7,0.9-11.5,2.7L571.9,114.1z
	 M583,111.5v1c5.5,0,9.5,1.5,12.2,4.3l0.7-0.7l0.7-0.7c-3.2-3.3-7.8-4.9-13.6-4.9V111.5z M595.9,116.1l-0.7,0.7
	c2.8,2.8,4.3,7.2,4.3,13.4h1h1c0-6.5-1.6-11.5-4.9-14.8L595.9,116.1z M600.5,130.2h-1v36.9h1h1v-36.9H600.5z M600.5,167.1h-1
	c0,1.8,0.4,3.4,1.4,4.7c1,1.3,2.4,2.1,4.2,2.6l0.3-1l0.3-1c-1.5-0.4-2.5-1-3.1-1.9c-0.6-0.8-1-2-1-3.5H600.5z M605.4,173.3l-0.3,0.9
	l1.2,0.4l0.3-0.9l0.3-0.9l-1.2-0.4L605.4,173.3z M606.6,173.7h-1v1.3h1h1v-1.3H606.6z M606.6,175v-1h-30.2v1v1h30.2V175z M576.3,175
	h1v-1.3h-1h-1v1.3H576.3z M576.3,173.7l0.3,1l1.7-0.5l-0.3-1l-0.3-1l-1.7,0.5L576.3,173.7z M578,173.2l0.3,1c1.7-0.5,3-1.4,3.9-2.6
	c0.9-1.3,1.3-2.8,1.3-4.6h-1h-1c0,1.5-0.3,2.6-0.9,3.4c-0.6,0.8-1.5,1.5-2.8,1.9L578,173.2z M582.5,166.9h1v-40.8h-1h-1v40.8H582.5z
	 M582.5,126.1h1c0-2.9-0.7-5.2-2.3-6.9c-1.6-1.6-4-2.3-6.9-2.3v1v1c2.6,0,4.3,0.6,5.4,1.8s1.8,2.9,1.8,5.4H582.5z M574.3,117.9v-1
	c-4.1,0-8.4,2-12.9,5.9l0.6,0.8l0.6,0.8c4.4-3.7,8.2-5.4,11.6-5.4V117.9z M562,123.5h-1v43.5h1h1v-43.5H562z M562,167.1h-1
	c0,1.8,0.4,3.4,1.3,4.6c0.9,1.3,2.2,2.1,3.9,2.6l0.3-1l0.3-1c-1.3-0.4-2.2-1-2.8-1.8c-0.6-0.8-0.9-2-0.9-3.5H562z M566.5,173.3
	l-0.3,0.9l1.2,0.4l0.3-0.9l0.3-0.9l-1.2-0.4L566.5,173.3z M567.6,173.7h-1v1.3h1h1v-1.3H567.6z M567.6,175v-1h-30.1v1v1h30.1V175z"
	/>
<path d="M2.8,175v-1.3l2.7-1c2.7-1.1,4.1-3.3,4.1-6.5V99.4c0-3.4-1.4-5.6-4.1-6.5l-2.7-1v-1.3h33.8c9,0,16.8,1.7,23.3,5.1
	c6.6,3.3,11.6,8.1,15.1,14.5c3.6,6.2,5.4,13.7,5.4,22.5c0,9-1.9,16.6-5.8,22.9c-3.8,6.3-9.2,11.1-16.1,14.5c-6.8,3.3-14.9,5-24.2,5
	H2.8z M28.8,172.4h5.5c6.1,0,11.1-1.2,14.8-3.6c3.8-2.5,6.5-6.6,8.2-12.3c1.8-5.8,2.7-13.7,2.7-23.8s-0.9-18-2.7-23.7
	c-1.7-5.8-4.4-9.9-8.1-12.3c-3.7-2.5-8.5-3.7-14.5-3.7h-6V172.4z M117.7,111.5c5.5,0,10.3,1.2,14.2,3.5c3.9,2.2,6.9,5.3,9,9.2
	c2.1,3.8,3.2,8.2,3.2,13.2c0,0.9,0,1.9-0.1,2.9c-0.1,0.9-0.3,1.8-0.5,2.6h-38.1c0.1,9.2,1.7,15.9,4.9,20c3.2,4,8,6,14.3,6
	c4.3,0,7.7-0.7,10.4-2c2.6-1.4,5.1-3.4,7.4-6l1.3,1.2c-2.6,4.7-6.2,8.4-10.6,11c-4.4,2.6-9.6,4-15.7,4c-6.1,0-11.4-1.3-16.1-3.8
	c-4.7-2.6-8.4-6.4-11-11.3s-4-10.7-4-17.4c0-7,1.5-12.9,4.6-17.8c3.1-4.9,7-8.7,11.8-11.3C107.3,112.8,112.4,111.5,117.7,111.5z
	 M117.3,114.1c-2.5,0-4.6,0.8-6.4,2.3c-1.7,1.5-3.1,4.1-4.1,7.9c-0.9,3.8-1.5,9.1-1.5,16h21.9c0.9-9.3,0.5-16-1-20.1
	C124.6,116.1,121.7,114.1,117.3,114.1z M149.2,204.4v-1.3l1.5-0.5c3.2-0.9,4.7-2.9,4.7-6.1v-69.6c0-1.9-0.3-3.3-1-4.2
	c-0.6-0.9-1.7-1.6-3.5-1.9l-1.8-0.4v-1.3l21.8-7.4l1.3,1.3l1.2,4c2.8-1.7,5.9-3,9.3-4c3.5-0.9,7.1-1.4,10.8-1.4
	c7.3,0,13.1,2.8,17.4,8.4c4.4,5.5,6.5,13.5,6.5,23.9c0,10.2-2.4,18.3-7.2,24.2c-4.7,5.9-11.3,8.8-20,8.8c-6.7,0-12.4-1-17-2.9v22.1
	c0,3.4,1.5,5.5,4.6,6.4l2.4,0.6v1.3H149.2z M184.1,173.2c4.3,0,7.6-2.2,10.1-6.7c2.6-4.4,3.8-11.8,3.8-22.1
	c0-10.3-1.2-17.5-3.6-21.6c-2.4-4.2-5.8-6.3-10.4-6.3c-3.2,0-6.7,1-10.5,3.1v51.6C176.9,172.5,180.4,173.2,184.1,173.2z M223.2,175
	v-1.3l1.9-0.5c1.7-0.5,2.9-1.3,3.5-2.3c0.7-1,1-2.3,1-4v-40.1c0-1.9-0.3-3.2-1-4.1c-0.6-0.9-1.7-1.6-3.5-1.9l-1.9-0.5v-1.3l22-7.4
	l1.3,1.3l1.2,11v1c1.2-2.4,2.7-4.6,4.6-6.5c2-2,4.1-3.7,6.4-5c2.4-1.3,4.7-1.9,7-1.9c3.2,0,5.7,0.9,7.4,2.7s2.6,4.1,2.6,6.8
	c0,2.9-0.9,5.2-2.6,6.8c-1.6,1.5-3.6,2.3-5.9,2.3c-3.6,0-6.7-1.8-9.5-5.4l-0.3-0.3c-0.9-1.2-1.8-1.8-2.9-1.9
	c-1.1-0.2-2.1,0.3-3.1,1.5c-0.9,0.8-1.6,1.7-2.2,2.8c-0.5,1-1,2.2-1.5,3.6v35.7c0,3.4,1.5,5.5,4.5,6.4l4.1,1.2v1.3H223.2z
	 M309.8,111.5c5.5,0,10.3,1.2,14.2,3.5c3.9,2.2,6.9,5.3,9,9.2c2.1,3.8,3.2,8.2,3.2,13.2c0,0.9,0,1.9-0.1,2.9
	c-0.1,0.9-0.3,1.8-0.5,2.6h-38.1c0.1,9.2,1.7,15.9,4.9,20c3.2,4,8,6,14.3,6c4.3,0,7.7-0.7,10.4-2s5.1-3.4,7.4-6l1.3,1.2
	c-2.6,4.7-6.2,8.4-10.6,11c-4.4,2.6-9.6,4-15.7,4c-6.1,0-11.4-1.3-16.1-3.8c-4.7-2.6-8.4-6.4-11-11.3c-2.6-4.9-4-10.7-4-17.4
	c0-7,1.5-12.9,4.6-17.8c3.1-4.9,7-8.7,11.8-11.3C299.4,112.8,304.5,111.5,309.8,111.5z M309.4,114.1c-2.5,0-4.6,0.8-6.4,2.3
	c-1.7,1.5-3.1,4.1-4.1,7.9c-0.9,3.8-1.5,9.1-1.5,16h21.9c0.9-9.3,0.5-16-1-20.1C316.7,116.1,313.8,114.1,309.4,114.1z"/>
<path class="st3" d="M529,55.5c1.3-0.3,2.6-0.5,4-0.5c2.3,0,4.5,0.5,6.6,1.4c2.1,0.9,3.9,2.3,5.4,4c1.5,1.7,2.6,3.7,3.3,5.9
	c0.7,2.2,0.9,4.5,0.6,6.7c-0.3,2.3-1.1,4.4-2.3,6.4c-1.2,1.9-2.8,3.6-4.7,4.9c-1.9,1.3-4,2.1-6.3,2.5c-2.2,0.4-4.5,0.3-6.7-0.3
	 M529,55.5l0-0.5c0-4-1.5-7.8-4.1-10.7c-2.6-2.9-6.3-4.8-10.2-5.2c-3.9-0.4-7.9,0.6-11.1,2.9c-3.2,2.3-5.4,5.7-6.3,9.6 M529,55.5
	c-0.1,2.6-0.8,5.2-2.1,7.5 M528.9,86.5c0.1-0.5,0.1-1,0.1-1.5c0-2.3-0.8-4.5-2.3-6.3c-1.5-1.8-3.5-3-5.7-3.5 M528.9,86.5
	c-0.4,2.4-1.5,4.5-3.4,6.1c-1.8,1.6-4.1,2.4-6.5,2.4h-2c-4.2,0-8.3,1.7-11.3,4.7c-3,3-4.7,6.6-4.7,10.8 M497.3,51.6
	c-2.8-0.8-5.7-0.8-8.4-0.1c-2.8,0.7-5.3,2.2-7.3,4.2c-2,2-3.4,4.6-4.1,7.3c-0.7,2.8-0.7,5.7,0.2,8.4 M497.3,51.6
	c4,1.1,7.4,3.8,9.5,7.4 M477.6,71.5c-2.8,0.8-5.1,2.6-6.7,5s-2.2,5.3-1.8,8.2s1.8,5.5,4,7.4c2.2,1.9,5,2.9,7.8,2.9
	c2.5,0,4.9-0.8,6.9-2.2c2-1.4,3.6-3.5,4.4-5.8 M477.6,71.5c0.4,1.2,0.9,2.4,1.5,3.5"/>
<path class="st4" d="M508.3,74c-2,2-5.5,2.3-8.5,0.6c-3-1.7-4.5-4.8-3.9-7.6"/>
</svg>
