<svg width="242" height="186" viewBox="0 0 242 186" fill="none" xmlns="http://www.w3.org/2000/svg">
<path d="M35.955 204.314L35.9551 206.896C35.9551 209.607 39.0754 211.129 41.2121 209.461C41.3862 209.325 41.5468 209.17 41.6902 209.002C54.4668 194.038 68.3021 183.948 77.3436 187.077C82.1474 188.144 86.4029 190.913 89.3244 194.873L90.7004 196.738C95.5105 203.258 103.348 206.829 111.424 206.181L153.499 202.804L202.723 192.363C206.014 191.665 209.409 192.963 211.394 195.679C216.269 202.351 226.834 198.903 226.834 190.639V165.145C226.834 161.015 228.991 157.186 232.522 155.044C237.531 152.006 239.557 145.756 237.282 140.357L198.44 48.1754C197.829 46.7242 197.068 45.3208 196.157 44.0359C166.098 1.61705 126.097 -6.45694 82.7491 4.29769C-38.6658 40.0571 -0.462968 153.437 35.0709 201.618C35.6526 202.407 35.955 203.334 35.955 204.314Z" fill="white"/>
<path d="M125.261 96.3643C127.388 95.8037 129.6 95.5235 131.895 95.5235C135.66 95.5273 139.38 96.3339 142.809 97.8894C146.237 99.4449 149.295 101.714 151.777 104.544C154.26 107.374 156.11 110.702 157.205 114.304C158.3 117.906 158.614 121.7 158.127 125.433C157.639 129.166 156.362 132.753 154.379 135.953C152.396 139.153 149.753 141.894 146.627 143.992C143.501 146.091 139.964 147.499 136.251 148.122C132.538 148.745 128.735 148.569 125.096 147.607M125.261 96.3643L125.274 95.5235C125.285 88.9828 122.874 82.6697 118.507 77.8005C114.14 72.9313 108.125 69.8505 101.622 69.1516C95.1187 68.4528 88.5869 70.1854 83.285 74.0156C77.9831 77.8458 74.2862 83.5025 72.9066 89.8961M125.261 96.3643C125.124 100.725 123.912 104.985 121.732 108.764M125.096 147.607C125.215 146.812 125.274 146.002 125.274 145.177C125.275 141.361 123.958 137.663 121.545 134.707C119.132 131.751 115.772 129.72 112.033 128.957M125.096 147.607C124.513 151.532 122.539 155.118 119.534 157.71C116.529 160.302 112.692 161.728 108.723 161.728H105.413C98.3896 161.728 91.6538 164.518 86.6875 169.484C81.7212 174.451 78.9777 180.348 78.9777 187.371M72.9066 89.8961C68.354 88.6034 63.5381 88.5543 58.9601 89.7539C54.3821 90.9535 50.2093 93.3581 46.8757 96.7173C43.5422 100.077 41.1697 104.268 40.0052 108.855C38.8408 113.442 38.9268 118.257 40.2545 122.8M72.9066 89.8961C79.5427 91.7753 85.1839 96.1695 88.6301 102.144M40.2545 122.8C35.6734 124.147 31.7376 127.1 29.1555 131.117C26.5734 135.134 25.5243 139.946 26.2004 144.673C26.8765 149.4 29.2325 153.726 32.8371 156.858C36.4417 159.99 41.0537 161.719 45.8289 161.728C49.9379 161.73 53.9464 160.458 57.302 158.086C60.6576 155.715 63.1951 152.361 64.5648 148.487M40.2545 122.8C40.8547 124.861 41.6911 126.803 42.7504 128.626" stroke="#2A4891" stroke-width="2" stroke-linecap="round" stroke-linejoin="round"/>
<path d="M91.0885 126.931C87.7121 130.182 81.9325 130.745 76.9936 127.971C72.0547 125.19 69.5323 119.96 70.5585 115.385" stroke="#2A4891" stroke-width="2" stroke-linecap="round"/>
</svg>
